<?xml version="1.0" encoding="utf-8"?>
<!-- Generator: Adobe Illustrator 15.1.0, SVG Export Plug-In . SVG Version: 6.00 Build 0)  -->
<!DOCTYPE svg PUBLIC "-//W3C//DTD SVG 1.1//EN" "http://www.w3.org/Graphics/SVG/1.1/DTD/svg11.dtd">
<svg version="1.1" id="Layer_1" xmlns="http://www.w3.org/2000/svg" xmlns:xlink="http://www.w3.org/1999/xlink" x="0px" y="0px"
	 width="512px" height="512px" viewBox="0 0 512 512" enable-background="new 0 0 512 512" xml:space="preserve">
<circle fill="#036564" cx="256" cy="256" r="256"/>
<g>
	<path fill="#FFFFFF" d="M221.364,269.966c-10.67,0.897-19.795,6.933-24.92,15.728h22.227c2.943,0,5.33,2.396,5.33,5.341
		c0,2.943-2.386,5.337-5.33,5.337h-26.125c-0.307,1.753-0.545,3.5-0.545,5.322c0,1.829,0.239,3.603,0.545,5.341h26.125
		c2.943,0,5.33,2.376,5.33,5.337c0,2.947-2.386,5.322-5.33,5.322h-22.227c5.557,9.522,15.761,16,27.557,16
		c2.943,0,5.33,2.396,5.33,5.341c0,2.943-2.386,5.337-5.33,5.337c-17.864,0-33.147-11.053-39.489-26.678H176
		c-2.943,0-5.33-2.375-5.33-5.322c0-2.961,2.386-5.337,5.33-5.337h5.875c-0.228-1.762-0.545-3.512-0.545-5.341
		c0-1.822,0.318-3.564,0.545-5.322H176c-2.943,0-5.33-2.394-5.33-5.337c0-2.944,2.386-5.341,5.33-5.341h8.511
		c5.228-12.864,16.553-22.604,30.398-25.625c-7.637-13.648-12.08-29.313-12.205-46.004C160.659,219.318,128,255.216,128,298.66
		c0,47.056,38.284,85.34,85.33,85.34c43.455,0,79.341-32.66,84.591-74.693C266.5,309.068,238.693,293.59,221.364,269.966z"/>
	<path fill="#FFFFFF" d="M155.989,206.647c2.136,2.193,5.545,2.188,7.659,0.08l21.273-21.398c2.068-2.085,2.068-5.46-0.023-7.534
		c-2.091-2.08-5.466-2.074-7.545,0.019l-11.943,12.016c1.227-25.307,21.988-45.614,47.613-45.693
		c2.932-0.011,5.318-2.409,5.307-5.347c-0.011-2.949-2.394-5.324-5.33-5.324c-0.011,0-0.011,0-0.022,0
		c-15.663,0.057-30.387,6.205-41.421,17.318c-10.568,10.636-16.409,24.625-16.871,39.522l-12.458-12.375
		c-2.091-2.091-5.466-2.074-7.541,0.012c-2.084,2.096-2.062,5.477,0.018,7.545L155.989,206.647z"/>
	<path fill="#FFFFFF" d="M355.887,305.25L355.887,305.25L355.887,305.25c-0.011-0.022-0.016-0.022-0.035-0.034
		c-2.147-2.085-5.476-1.977-7.488,0.057L327.09,326.66c-2.079,2.09-2.079,5.469,0.023,7.544c1.023,1.046,2.387,1.557,3.758,1.557
		c1.368,0,2.742-0.533,3.766-1.579l11.965-12.021c-1.23,25.317-21.988,45.624-47.624,45.711c-2.932,0-5.329,2.401-5.317,5.345
		c0.011,2.933,2.408,5.318,5.34,5.318c0.011,0,0.011,0,0.022,0c31.626-0.113,57.354-25.386,58.364-56.75l12.386,12.295
		c2.099,2.069,5.467,2.052,7.546-0.022c2.068-2.103,2.053-5.467-0.022-7.546L355.887,305.25z"/>
	<path fill="#FFFFFF" d="M298.66,298.66c47.056,0,85.34-38.284,85.34-85.331c0-47.045-38.284-85.33-85.34-85.33
		c-47.046,0-85.331,38.284-85.331,85.33C213.33,260.376,251.614,298.66,298.66,298.66z M298.66,218.67
		c-11.762,0-21.32-9.58-21.32-21.341c0-9.904,6.809-18.182,16-20.568v-6.091c0-2.955,2.376-5.341,5.32-5.341
		c2.964,0,5.34,2.386,5.34,5.341v6.091c9.171,2.386,16,10.665,16,20.568c0,2.955-2.376,5.341-5.34,5.341
		c-2.944,0-5.32-2.386-5.32-5.341c0-5.875-4.783-10.659-10.68-10.659c-5.876,0-10.66,4.784-10.66,10.659
		c0,5.881,4.784,10.67,10.66,10.67c11.761,0,21.34,9.564,21.34,21.33c0,9.915-6.829,18.193-16,20.58V256
		c0,2.943-2.376,5.34-5.34,5.34c-2.944,0-5.32-2.396-5.32-5.34v-6.091c-9.191-2.387-16-10.665-16-20.58
		c0-2.943,2.376-5.33,5.32-5.33c2.964,0,5.34,2.386,5.34,5.33c0,5.881,4.784,10.67,10.66,10.67c5.896,0,10.68-4.79,10.68-10.67
		C309.34,223.455,304.557,218.67,298.66,218.67z"/>
</g>
</svg>
